<?xml version="1.0" standalone="no"?>
<!DOCTYPE svg PUBLIC "-//W3C//DTD SVG 20010904//EN"
 "http://www.w3.org/TR/2001/REC-SVG-20010904/DTD/svg10.dtd">
<svg version="1.0" xmlns="http://www.w3.org/2000/svg"
 width="800.000000pt" height="800.000000pt" viewBox="0 0 800.000000 800.000000"
 preserveAspectRatio="xMidYMid meet">
<metadata>
Created by potrace 1.11, written by Peter Selinger 2001-2013
</metadata>
<g transform="translate(0.000000,800.000000) scale(0.100000,-0.100000)"
fill="#000000" stroke="none">
<path d="M3800 7886 c-107 -62 -319 -184 -470 -271 -151 -87 -385 -222 -520
-300 -135 -78 -393 -227 -575 -332 -275 -158 -875 -505 -1568 -905 l-137 -80
2 -2000 3 -2000 355 -205 c195 -113 474 -274 620 -358 420 -242 1973 -1139
2305 -1330 93 -54 174 -98 180 -98 5 0 186 101 400 225 390 225 584 337 1045
603 135 78 337 195 450 260 113 65 450 260 750 433 300 173 607 350 683 394
l137 80 -2 2000 -3 1999 -485 281 c-267 154 -606 350 -755 436 -148 86 -423
244 -610 352 -187 108 -464 268 -615 355 -151 87 -412 238 -580 335 -168 97
-330 191 -360 208 l-56 31 -194 -113z m-500 -735 c212 -61 585 -167 830 -236
517 -147 877 -249 1440 -409 709 -201 1076 -305 1420 -402 384 -108 390 -111
390 -133 0 -28 -33 -51 -290 -198 -135 -78 -310 -178 -388 -224 -119 -68 -153
-83 -195 -87 -45 -3 -109 14 -459 122 -224 69 -414 126 -422 126 -8 0 -202
-109 -432 -242 -231 -133 -495 -285 -589 -339 -93 -54 -171 -102 -173 -108 -2
-5 96 -114 217 -242 227 -238 241 -258 203 -292 -9 -9 -101 -64 -202 -123
-102 -58 -279 -160 -394 -227 -167 -96 -218 -121 -255 -124 -25 -2 -51 0 -56
4 -6 4 -101 114 -210 243 -202 238 -537 631 -1305 1534 -664 780 -680 799
-680 816 0 28 37 53 295 202 138 79 357 206 488 282 274 158 288 165 342 166
21 0 213 -49 425 -109z m-2112 -1542 c381 -220 820 -474 1487 -859 336 -193
732 -422 880 -507 335 -193 353 -204 392 -245 38 -39 53 -76 43 -103 -4 -11
-421 -445 -926 -965 -506 -520 -945 -972 -976 -1005 l-56 -60 346 -200 c470
-271 767 -443 1082 -624 146 -84 280 -167 298 -184 62 -59 62 -59 62 -366 0
-241 -2 -282 -16 -295 -8 -9 -19 -16 -23 -16 -26 0 -100 37 -286 145 -115 67
-334 193 -485 280 -151 87 -385 222 -520 300 -135 78 -396 229 -580 335 -184
106 -445 257 -580 335 -135 78 -340 196 -456 263 -257 148 -317 202 -298 266
3 11 447 462 986 1002 936 937 978 981 955 991 -13 6 -152 85 -308 176 -156
90 -504 291 -774 447 -269 155 -505 296 -523 314 -62 58 -62 56 -62 390 0 167
3 312 6 321 14 37 78 10 332 -136z m6080 -46 c61 -30 110 -91 133 -161 17 -52
25 -684 9 -722 -26 -62 -24 -61 -763 -486 -147 -85 -281 -157 -297 -161 -58
-11 -60 -4 -60 249 l0 229 -25 24 c-41 42 -131 26 -268 -48 -127 -68 -544
-311 -592 -345 -90 -64 -175 -153 -206 -217 l-29 -60 0 -1172 c0 -644 3 -1179
6 -1188 4 -8 20 -23 36 -31 24 -12 39 -13 79 -5 87 19 184 70 629 331 202 119
293 199 345 303 25 50 25 54 25 285 0 218 1 237 21 271 29 51 69 78 369 251
146 84 351 203 455 263 163 95 196 111 235 111 l45 1 0 -340 c0 -321 -1 -345
-23 -425 -92 -347 -422 -715 -953 -1063 -182 -119 -1268 -746 -1454 -840 -334
-167 -594 -239 -751 -207 -119 24 -188 88 -218 202 -16 58 -17 182 -14 1438
l3 1375 23 75 c104 340 421 693 917 1023 148 98 422 259 1193 701 480 275 762
382 985 372 73 -3 98 -9 145 -33z"/>
<path d="M3237 6303 c109 -115 345 -361 523 -548 179 -187 328 -341 331 -343
4 -1 148 79 320 179 173 99 366 211 429 247 l114 66 -239 77 c-132 43 -382
122 -555 177 -173 55 -493 157 -710 226 -218 69 -399 126 -404 126 -5 0 81
-93 191 -207z"/>
</g>
</svg>
